<?xml version="1.0" encoding="UTF-8"?>
<svg id="Layer_1" data-name="Layer 1" xmlns="http://www.w3.org/2000/svg" viewBox="0 0 162.34 201.65">
  <g>
    <g>
      <g>
        <path d="M120.59,172.77c-17.01,0-31-9.09-31.59-9.48l-.88-.58.7-.79c.58-.65,14.33-15.99,33.79-18.58,1.91-.25,3.89-.38,5.88-.38,17.01,0,31,9.09,31.59,9.48l.88.58-.7.79c-.58.65-14.33,15.99-33.79,18.58-1.91.25-3.89.38-5.88.38Z" fill="#f15946"/>
        <path d="M128.49,143.88c16.93,0,31.09,9.33,31.09,9.33,0,0-13.88,15.7-33.23,18.28-1.94.26-3.87.38-5.76.38-16.93,0-31.09-9.33-31.09-9.33,0,0,13.88-15.7,33.23-18.28,1.94-.26,3.87-.38,5.76-.38M128.49,142.05h0c-2.03,0-4.05.13-6,.39-19.8,2.63-33.77,18.22-34.35,18.88l-1.39,1.57,1.75,1.16c.6.39,14.81,9.63,32.09,9.63,2.03,0,4.05-.13,6-.39,19.8-2.64,33.77-18.22,34.35-18.88l1.39-1.57-1.75-1.16c-.6-.39-14.81-9.63-32.09-9.63h0Z" fill="#37322c"/>
      </g>
      <path d="M121.4,154.63c6.5-.72,7.41,6.18.95,7.18-.81.12-1.62.24-2.45.35-16.53,2.2-30.41.37-30.41.37,0,0,12.92-5.4,29.44-7.6.83-.11,1.65-.21,2.46-.3Z" fill="#37322c"/>
    </g>
    <g>
      <g>
        <path d="M142.31,200.74c-7.98,0-19.62-1.33-29.79-7.66-16.67-10.38-22.88-30.02-23.14-30.85l-.31-1,1.04-.17c.13-.02,3.27-.51,8.1-.51,7.98,0,19.62,1.33,29.79,7.66,16.67,10.38,22.88,30.02,23.14,30.85l.31,1-1.04.17c-.13.02-3.27.51-8.1.51Z" fill="#f15946"/>
        <path d="M98.21,161.46c7.54,0,19.19,1.23,29.31,7.53,16.57,10.32,22.75,30.34,22.75,30.34,0,0-3.14.5-7.96.5-7.54,0-19.19-1.23-29.31-7.53-16.57-10.32-22.75-30.34-22.75-30.34,0,0,3.14-.5,7.96-.5M98.21,159.63h0c-4.9,0-8.11.5-8.24.52l-2.07.33.62,2.01c.26.84,6.57,20.8,23.53,31.35,10.35,6.45,22.18,7.8,30.27,7.8,4.9,0,8.11-.5,8.24-.52l2.07-.33-.62-2.01c-.26-.84-6.57-20.8-23.53-31.35-10.35-6.45-22.18-7.8-30.27-7.8h0Z" fill="#37322c"/>
      </g>
      <path d="M119.89,176.15c5.47,3.57,1.79,9.48-3.83,6.15-.7-.42-1.41-.85-2.12-1.29-14.15-8.81-23.7-19.05-23.7-19.05,0,0,13.4,4.05,27.55,12.86.71.44,1.4.88,2.09,1.33Z" fill="#37322c"/>
    </g>
    <g>
      <g>
        <path d="M70.67,175.45c-16.48,0-29.88-11.99-29.88-26.73,0-.51.03-1.02.05-1.52.11-1.62,1.43-2.84,3.07-2.84,1.04,0,1.96.5,2.54,1.37,5.01,7.62,14.3,12.35,24.23,12.35s19.22-4.73,24.24-12.35c.57-.87,1.5-1.37,2.53-1.37,1.65,0,2.96,1.22,3.06,2.83.04.49.05,1.01.05,1.53,0,2.16-.29,4.3-.86,6.36-.58,2.17-1.48,4.29-2.68,6.29-5.21,8.69-15.3,14.09-26.34,14.09Z" fill="#f15946"/>
        <path d="M97.45,145.28c1.04,0,2.07.74,2.15,1.97.04.48.05.98.05,1.47,0,2.1-.28,4.16-.83,6.11-.57,2.14-1.45,4.17-2.59,6.06-4.87,8.13-14.49,13.65-25.56,13.65-16,0-28.97-11.55-28.97-25.82,0-.5.02-.99.05-1.47.08-1.24,1.11-1.97,2.16-1.97.67,0,1.34.3,1.78.96,5.02,7.63,14.34,12.75,24.99,12.75s19.97-5.12,25-12.75c.43-.66,1.11-.96,1.77-.96M97.45,143.45h0c-1.35,0-2.55.65-3.3,1.78-4.85,7.36-13.85,11.93-23.48,11.93s-18.62-4.57-23.47-11.93c-.75-1.13-1.95-1.78-3.3-1.78-2.12,0-3.83,1.58-3.97,3.67-.03.5-.05,1.04-.05,1.59,0,15.24,13.82,27.64,30.8,27.64,11.35,0,21.75-5.57,27.12-14.53,1.25-2.07,2.18-4.27,2.78-6.53.59-2.11.89-4.33.89-6.58,0-.6-.02-1.13-.05-1.61-.13-2.07-1.83-3.66-3.97-3.66h0Z" fill="#37322c"/>
      </g>
      <path d="M98.82,154.83c-.57,2.14-1.45,4.17-2.59,6.06-15.64,8.72-32.99,7.91-41.55-.99,9.55,5.97,26.03,7.25,44.14-5.07Z" fill="#37322c"/>
    </g>
  </g>
  <g>
    <path d="M117.57,82.31c0,25.57-20.82,53.82-46.51,53.82s-46.51-28.25-46.51-53.82c0-52.02,93.03-52.14,93.03,0Z" fill="#37322c"/>
    <g>
      <g>
        <path d="M36.02,103.85s-8.05-8.65-10.68-.81,1.9,8.2,4.04,14.63c2.14,6.43,5.46,8.37,8.45,6.88,2.99-1.49-1.81-20.7-1.81-20.7Z" fill="#fff" stroke="#37322c" stroke-linecap="round" stroke-linejoin="round" stroke-width="2.04"/>
        <path d="M28.26,107.49c.26-4.09,2.73-4.43,4.7-2.04,2.33,2.9-1.09,5.87-1.15,5.97-1.51,2.74.71,6.05,2.8,6.46-2.54.74-6.66-3.45-4.3-7.56.6-.79,2.57-2.16,1.2-4.15-1.39-2.02-2.07-.79-3.24,1.31Z" fill="#37322c"/>
      </g>
      <g>
        <path d="M106.09,103.85s8.05-8.65,10.68-.81c2.63,7.83-1.9,8.2-4.04,14.63-2.14,6.43-5.46,8.37-8.45,6.88-2.99-1.49,1.81-20.7,1.81-20.7Z" fill="#fff" stroke="#37322c" stroke-linecap="round" stroke-linejoin="round" stroke-width="2.04"/>
        <path d="M113.85,107.49c-1.17-2.1-1.85-3.33-3.24-1.31-1.35,1.95.46,3.18,1.2,4.15,2.35,4.09-1.76,8.3-4.3,7.56.9-.18,1.56-.71,2.07-1.34,3.87-4.8-1.56-5.4-1.22-9.13.31-3.04,5.12-5.97,5.5.07Z" fill="#37322c"/>
      </g>
    </g>
    <path d="M106.88,108.66c0,28.86-16.04,52.25-35.82,52.25s-35.82-23.39-35.82-52.25c0-11.85-12.64-44.8,35.82-44.8s35.82,32.61,35.82,44.8Z" fill="#fff" stroke="#37322c" stroke-miterlimit="10" stroke-width="1.82"/>
    <path d="M62.68,141.52c7,1.4,9.58,1.42,16.75,0-4.12,4.31-12.58,4.34-16.75,0Z" fill="#37322c"/>
    <path d="M63.69,117.36c-.86,1.73-1.82,4.44-.5,5.4.75.51,1.95-.04,3.18-.22,4.8-.63,3.4,5.76,6,1.43,1.73-3.08,5.21-.29,6.56-1.21,1.34-.98.35-3.69-.5-5.4,1.81,1.83,2.97,4.68,1.31,6.59-1.55,1.7-4.55.09-5.45.9-.5.48-1.49,3.05-3.22,3.08-1.73,0-2.76-2.63-3.23-3.08-.91-.82-3.89.81-5.45-.9-1.66-1.92-.47-4.78,1.31-6.59Z" fill="#37322c"/>
    <path d="M86.2,125.7c-6.87-4.36-12.78-1.6-15.16,1.88-2.37-3.48-8.29-6.24-15.16-1.88-8.16,5.18-13.68.84-13.19,1.4,11.59,13.18,24.68,9.2,28.35,5.04,3.67,4.16,16.76,8.15,28.35-5.04.49-.56-5.03,3.78-13.19-1.4Z" fill="#37322c"/>
    <g>
      <path d="M102.1,97.19c.22.13.44-.19.27-.39-1.85-2.15-6.74-6.62-15.05-5.81-8.34.81-8.9,2.41-8.85,3.88.12,3.68,2.68,3.72,8.78-.09,4.86-3.03,12.1.74,14.85,2.4Z" fill="#37322c"/>
      <path d="M39.98,97.19c-.22.13-.44-.19-.27-.39,1.85-2.15,6.74-6.62,15.05-5.81,8.34.81,8.9,2.41,8.85,3.88-.12,3.68-2.68,3.72-8.78-.09-4.86-3.03-12.1.74-14.85,2.4Z" fill="#37322c"/>
    </g>
    <g>
      <g>
        <path d="M90.62,105c0-3.83-5.8-3.84-5.8,0s5.8,3.84,5.8,0Z" fill="#37322c"/>
        <path d="M79.94,105.82c3.88-5.98,13.24-7.05,15.55,0-5.49-4.39-8.7-3.07-15.55,0Z" fill="#37322c"/>
      </g>
      <g>
        <path d="M51.46,105c0-3.83,5.8-3.84,5.8,0s-5.8,3.84-5.8,0Z" fill="#37322c"/>
        <path d="M62.14,105.82c-3.88-5.98-13.24-7.05-15.55,0,5.49-4.39,8.7-3.07,15.55,0Z" fill="#37322c"/>
      </g>
    </g>
    <path d="M141.25,45.38c0,17.77-15.49,32.17-34.61,32.17-11.7,0-22.04-5.41-28.3-13.67-2.26.68-4.62,1.12-7.07,1.29-6.15,8.91-16.9,14.82-29.13,14.82-1.86,0-3.69-.14-5.47-.41-3.4,5.52-9.48,9.21-16.44,9.21-10.66,0-19.31-8.64-19.31-19.31,0-5.71,2.49-10.83,6.43-14.37.29-.26.59-.51.9-.76-.25-1.13-.44-2.28-.55-3.45-.11-1.01-.17-2.05-.17-3.09,0-17.43,14.92-31.61,33.55-32.14h0c.31,0,.62-.02.93-.02,1.09-1.69,2.33-3.27,3.72-4.71,0,0,0,0,0,0C51.58,4.76,59.85.91,69.03.91c7.64,0,14.64,2.67,20.16,7.1,0,0,0,0,0,0,2.44,1.97,4.6,4.29,6.37,6.88.3-.1.6-.19.9-.26,3.21-.93,6.64-1.43,10.18-1.43,19.12,0,34.61,14.4,34.61,32.17Z" fill="#fff" stroke="#37322c" stroke-miterlimit="10" stroke-width="1.82"/>
    <path d="M106.63,86.71c-22.57-9.22-48.59-9.22-71.16,0-1.4.57-2.94-.45-2.94-1.96,0-14.06-.43-14.42,1.27-15.16,36.25-15.66,75.76-2.46,75.76,1.95,0,11.23.95,16.76-2.94,15.17Z" fill="#fff" stroke="#37322c" stroke-miterlimit="10" stroke-width="1.82"/>
    <g>
      <path d="M123.52,51.01c0,11.92-12.77,21.58-28.52,21.58s-28.52-9.66-28.52-21.58" fill="#fff"/>
      <path d="M123.52,51.01c.28,3.31-.61,6.72-2.29,9.67-1.7,2.96-4.13,5.47-6.93,7.42-2.79,1.99-5.95,3.39-9.22,4.36-3.28.95-6.69,1.39-10.09,1.44-3.41-.05-6.81-.5-10.1-1.44-3.26-.98-6.43-2.37-9.22-4.36-2.8-1.95-5.23-4.47-6.93-7.43-1.68-2.95-2.57-6.37-2.28-9.67.31,3.3,1.52,6.39,3.38,8.98,1.84,2.61,4.28,4.73,6.97,6.4,2.71,1.64,5.66,2.89,8.74,3.67,3.07.81,6.25,1.21,9.43,1.21,3.18,0,6.36-.4,9.43-1.21,3.08-.77,6.03-2.02,8.75-3.67,2.69-1.67,5.13-3.79,6.97-6.4,1.86-2.59,3.07-5.68,3.38-8.98Z" fill="#37322c"/>
    </g>
    <path d="M45.72,10.94c-4.83,7.14-6.46,15.6-1.97,23.31-3.8-4.46-4.96-11.39-2.68-18.58h0c.31,0,.62-.02.93-.02,1.09-1.69,2.33-3.27,3.72-4.71Z" fill="#37322c"/>
    <path d="M24.64,65.85c-6.31.31-13.03-3.57-17.3-10.74.29-.26.59-.51.9-.76-.25-1.13-.44-2.28-.55-3.45,2.8,7.78,8.4,13.84,16.95,14.95Z" fill="#37322c"/>
    <path d="M119.88,23.63c-9,4.5-23.19-.33-30.69-15.61,2.44,1.97,4.6,4.29,6.37,6.88.3-.1.6-.19.9-.26,5.87,7.31,14.22,11.69,23.41,8.99Z" fill="#37322c"/>
  </g>
</svg>